<?xml version="1.0" standalone="no"?>
<!DOCTYPE svg PUBLIC "-//W3C//DTD SVG 20010904//EN"
 "http://www.w3.org/TR/2001/REC-SVG-20010904/DTD/svg10.dtd">
<svg version="1.0" xmlns="http://www.w3.org/2000/svg"
 width="132.000000pt" height="132.000000pt" viewBox="0 0 132.000000 132.000000"
 preserveAspectRatio="xMidYMid meet">
<metadata>
Created by potrace 1.15, written by Peter Selinger 2001-2017
</metadata>
<g transform="translate(0.000000,132.000000) scale(0.100000,-0.100000)"
fill="#000000" stroke="none">
<path d="M278 1231 c-98 -20 -119 -60 -128 -256 -4 -82 -12 -161 -18 -175 -13
-34 -51 -67 -85 -75 -25 -7 -27 -11 -27 -55 0 -45 2 -49 29 -55 74 -16 101
-85 101 -258 1 -184 43 -247 161 -247 l59 0 0 40 c0 39 -1 40 -34 40 -19 0
-44 8 -57 18 -20 17 -23 31 -30 148 -11 171 -23 217 -68 263 -20 21 -43 41
-51 44 -12 5 -11 8 5 18 43 26 83 79 94 126 7 26 15 104 18 172 6 113 8 127
29 148 15 15 35 23 59 23 35 0 35 0 35 45 0 43 -1 45 -27 44 -16 -1 -44 -5
-65 -8z"/>
<path d="M944 1227 c-3 -8 -4 -28 -2 -44 3 -25 8 -29 46 -34 69 -9 74 -20 82
-171 4 -73 13 -153 20 -178 11 -42 65 -108 100 -123 12 -6 12 -8 2 -13 -34
-15 -81 -68 -97 -106 -10 -27 -18 -83 -21 -153 -8 -188 -15 -205 -85 -214 -42
-6 -44 -7 -47 -43 l-3 -38 58 0 c74 0 121 23 146 73 16 30 21 69 26 190 6 113
12 160 24 184 17 32 62 63 92 63 11 0 15 11 15 48 0 47 -1 48 -42 62 -69 24
-81 55 -89 236 -9 216 -32 254 -161 269 -47 6 -59 4 -64 -8z"/>
<path d="M575 1076 c-93 -44 -145 -126 -145 -231 0 -90 35 -154 115 -212 28
-20 29 -22 10 -29 -11 -4 -31 -15 -45 -25 -25 -17 -25 -17 -109 54 -65 55 -87
68 -99 60 -30 -18 -23 -31 56 -98 l79 -67 -33 -50 c-35 -51 -58 -114 -47 -131
9 -15 126 -64 185 -77 33 -7 99 -11 168 -8 102 4 124 8 190 36 41 18 88 43
104 56 l30 23 -18 47 c-22 57 -104 144 -163 173 l-43 20 40 27 c47 31 95 111
105 172 15 101 -50 214 -150 260 -69 33 -161 33 -230 0z m282 -158 c31 -29 33
-118 3 -148 -18 -18 -33 -20 -174 -20 l-155 0 -20 26 c-31 39 -29 107 4 139
23 24 28 25 171 25 138 0 149 -1 171 -22z"/>
</g>
</svg>